<svg width="20" height="20" viewBox="0 0 20 20" fill="none" xmlns="http://www.w3.org/2000/svg">
<path d="M16.875 3.75003H13.75V3.12503C13.75 2.62775 13.5525 2.15084 13.2008 1.79921C12.8492 1.44757 12.3723 1.25003 11.875 1.25003H8.125C7.62772 1.25003 7.15081 1.44757 6.79917 1.79921C6.44754 2.15084 6.25 2.62775 6.25 3.12503V3.75003H3.125C2.95924 3.75003 2.80027 3.81588 2.68306 3.93309C2.56585 4.0503 2.5 4.20927 2.5 4.37503C2.5 4.54079 2.56585 4.69976 2.68306 4.81697C2.80027 4.93418 2.95924 5.00003 3.125 5.00003H3.75V16.25C3.75 16.5816 3.8817 16.8995 4.11612 17.1339C4.35054 17.3683 4.66848 17.5 5 17.5H15C15.3315 17.5 15.6495 17.3683 15.8839 17.1339C16.1183 16.8995 16.25 16.5816 16.25 16.25V5.00003H16.875C17.0408 5.00003 17.1997 4.93418 17.3169 4.81697C17.4342 4.69976 17.5 4.54079 17.5 4.37503C17.5 4.20927 17.4342 4.0503 17.3169 3.93309C17.1997 3.81588 17.0408 3.75003 16.875 3.75003ZM8.75 13.125C8.75 13.2908 8.68415 13.4498 8.56694 13.567C8.44973 13.6842 8.29076 13.75 8.125 13.75C7.95924 13.75 7.80027 13.6842 7.68306 13.567C7.56585 13.4498 7.5 13.2908 7.5 13.125V8.12503C7.5 7.95927 7.56585 7.8003 7.68306 7.68309C7.80027 7.56588 7.95924 7.50003 8.125 7.50003C8.29076 7.50003 8.44973 7.56588 8.56694 7.68309C8.68415 7.8003 8.75 7.95927 8.75 8.12503V13.125ZM12.5 13.125C12.5 13.2908 12.4342 13.4498 12.3169 13.567C12.1997 13.6842 12.0408 13.75 11.875 13.75C11.7092 13.75 11.5503 13.6842 11.4331 13.567C11.3158 13.4498 11.25 13.2908 11.25 13.125V8.12503C11.25 7.95927 11.3158 7.8003 11.4331 7.68309C11.5503 7.56588 11.7092 7.50003 11.875 7.50003C12.0408 7.50003 12.1997 7.56588 12.3169 7.68309C12.4342 7.8003 12.5 7.95927 12.5 8.12503V13.125ZM12.5 3.75003H7.5V3.12503C7.5 2.95927 7.56585 2.8003 7.68306 2.68309C7.80027 2.56588 7.95924 2.50003 8.125 2.50003H11.875C12.0408 2.50003 12.1997 2.56588 12.3169 2.68309C12.4342 2.8003 12.5 2.95927 12.5 3.12503V3.75003Z" fill="#FF3333"/>
</svg>
